<?xml version="1.0" encoding="utf-8"?>
<!-- Generator: Adobe Illustrator 22.0.1, SVG Export Plug-In . SVG Version: 6.00 Build 0)  -->
<svg version="1.1" id="Capa_1" xmlns="http://www.w3.org/2000/svg" xmlns:xlink="http://www.w3.org/1999/xlink" x="0px" y="0px"
	 viewBox="0 0 508.5 508.5" style="enable-background:new 0 0 508.5 508.5;" xml:space="preserve">
<style type="text/css">
	.st0{fill:#FFFFFF;}
</style>
<g>
	<g>
		<g>
			<g>
				<path class="st0" d="M254.3,0C113.8,0,0,113.8,0,254.3s113.8,254.3,254.3,254.3s254.3-113.8,254.3-254.3S394.7,0,254.3,0z
					 M254.3,476.7c-122.7,0-222.5-99.8-222.5-222.5S131.6,31.7,254.3,31.7c122.6,0,222.5,99.8,222.5,222.5
					C476.7,376.9,376.9,476.7,254.3,476.7z"/>
				<path class="st0" d="M254.3,95.3c-17.5,0-31.8,14.2-31.8,31.8V286c0,17.5,14.2,31.8,31.8,31.8S286,303.6,286,286V127.1
					C286,109.6,271.8,95.3,254.3,95.3z"/>
				<circle class="st0" cx="254.3" cy="380.9" r="31.8"/>
			</g>
		</g>
	</g>
</g>
</svg>
