<?xml version="1.0" encoding="utf-8" ?>
<svg xmlns="http://www.w3.org/2000/svg" xmlns:xlink="http://www.w3.org/1999/xlink" width="14" height="17">
	<defs>
		<clipPath id="clip_0">
			<rect x="-1314.36" y="-29.440002" width="1516.7999" height="898.56" clip-rule="evenodd"/>
		</clipPath>
	</defs>
	<g clip-path="url(#clip_0)">
		<path fill="rgb(197,208,222)" stroke="none" transform="matrix(0.96 0 0 0.96 0.742432 1.34518)" d="M13.0831 11.6446L12.1698 10.1902C12.0684 10.0549 12.0345 9.88582 12.0007 9.7167L11.6963 4.87997C11.561 2.27557 9.5316 0.21235 6.92721 0.00941032C4.15369 -0.159706 1.78606 1.97116 1.58312 4.74468L1.24489 9.7167C1.24489 9.88582 1.17724 10.0549 1.07577 10.1902L0.162542 11.6108C-0.141868 12.0843 -0.00657457 12.727 0.466952 12.9976C0.669892 13.1329 0.839009 13.2005 1.04195 13.2005L12.2375 13.2005C12.8125 13.2005 13.2522 12.7608 13.2522 12.1858C13.2522 11.9829 13.1845 11.8138 13.0831 11.6446Z"/>
	</g>
	<defs>
		<clipPath id="clip_1">
			<rect x="-1314.36" y="-29.440002" width="1516.7999" height="898.56" clip-rule="evenodd"/>
		</clipPath>
	</defs>
	<g clip-path="url(#clip_1)">
		<path fill="rgb(197,208,222)" stroke="none" transform="matrix(0.96 0 0 0.96 5.35156 14.9918)" d="M3.0053 0C3.37736 0 3.68177 0.30441 3.68177 0.676466C3.68177 0.777936 3.64795 0.91323 3.5803 1.0147C3.0053 1.99558 1.75384 2.29999 0.806786 1.72499C0.502376 1.55587 0.265613 1.31911 0.0964966 1.0147C-0.106443 0.676466 0.02885 0.270587 0.33326 0.10147C0.43473 0.0338233 0.5362 0 0.671493 0L3.0053 0Z"/>
	</g>

</svg>