<?xml version="1.0" encoding="utf-8" ?>
<svg xmlns="http://www.w3.org/2000/svg" xmlns:xlink="http://www.w3.org/1999/xlink" width="18" height="15">
	<defs>
		<clipPath id="clip_0">
			<rect x="-27.040039" y="-194.66" width="1485.2" height="879.84009" clip-rule="evenodd"/>
		</clipPath>
	</defs>
	<g clip-path="url(#clip_0)">
		<path fill="rgb(183,192,205)" stroke="none" transform="matrix(0.94 0 0 0.94 0.56543 0.598494)" d="M8.61536 0C0.851517 0 -2.94211 9.54654 2.69819 14.8978L3.81342 13.7108C2.46849 12.4331 1.62417 10.6316 1.62417 8.63268C1.62417 4.76971 4.76035 1.6269 8.61675 1.6269C12.4724 1.6269 15.6097 4.76971 15.6097 8.63268C15.6097 10.4864 14.8996 12.3096 13.4224 13.7133L14.538 14.9007C20.1597 9.56814 16.403 0 8.61536 0ZM7.10655 8.62255C7.10655 7.66018 8.00219 6.90334 8.99419 7.14783L11.7848 4.61101L12.9234 5.86334L10.1312 8.40159C10.1419 8.47431 10.1535 8.54686 10.1535 8.62255C10.1535 9.46309 9.4652 10.146 8.63002 10.146C7.7992 10.146 7.10655 9.46718 7.10655 8.62255ZM6.09096 11.8462L6.09096 13.5389L11.1691 13.5389L11.1691 11.8462L6.09096 11.8462Z" fill-rule="evenodd"/>
	</g>

</svg>