<?xml version="1.0" encoding="utf-8" ?>
<svg xmlns="http://www.w3.org/2000/svg" xmlns:xlink="http://www.w3.org/1999/xlink" width="19" height="17">
	<defs>
		<clipPath id="clip_0">
			<rect x="-27.200073" y="-465.04999" width="1501" height="889.20001" clip-rule="evenodd"/>
		</clipPath>
	</defs>
	<g clip-path="url(#clip_0)">
		<path fill="rgb(183,192,205)" stroke="none" transform="matrix(0.95 0 0 0.95 0.648682 1.21378)" d="M12.0395 0L5.85703 0L5.85703 1.62695L12.0395 1.62695L12.0395 0ZM13.6693 1.62695L15.3888 1.62695L17.8965 8.88349L17.8965 15.6187L0 15.6187L0 8.88349L2.48585 1.62695L4.20535 1.62695L1.75721 8.78555L7.29916 8.78555L7.39261 9.4769C7.42375 9.67774 7.65068 10.7064 8.93702 10.7064C10.4797 10.7064 10.4974 9.43633 10.5751 8.78555L16.1174 8.78555L13.6693 1.62695ZM13.0156 2.92852L4.88086 2.92852L4.88086 4.55547L13.0156 4.55547L13.0156 2.92852ZM13.9918 7.48398L3.90469 7.48398L3.90469 5.85703L13.9918 5.85703L13.9918 7.48398ZM16.2695 13.9918L1.62695 13.9918L1.62695 10.4125L5.9715 10.4125C6.94501 13.0156 10.9272 13.0156 11.9028 10.4125L16.2695 10.4125L16.2695 13.9918Z" fill-rule="evenodd"/>
	</g>

</svg>