<?xml version="1.0" encoding="UTF-8"?>
<svg width="209px" height="47px" viewBox="0 0 209 47" version="1.1" xmlns="http://www.w3.org/2000/svg" xmlns:xlink="http://www.w3.org/1999/xlink">
    <!-- Generator: Sketch 53.2 (72643) - https://sketchapp.com -->
    <title>logo</title>
    <desc>Created with Sketch.</desc>
    <g id="Page-1" stroke="none" stroke-width="1" fill="none" fill-rule="evenodd">
        <g id="Dashboard-2" transform="translate(-28.000000, -14.000000)">
            <g id="logo" transform="translate(25.000000, 14.000000)">
                <g id="Group">
                    <path d="M28.5192409,0 L32.2677249,7.77869235 L35.2432942,5.2706316 C36,7.50362247 36.1891764,9.61825301 35.8108236,11.6145232 C35.2432942,14.6089286 33.3905589,18 28.5192409,18 C23.6479229,18 21.5213276,14.6441025 21.0901049,11.6145232 C20.802623,9.59480375 21.2030547,7.48017321 22.2913998,5.2706316 L24.7201368,7.77869235 L28.5192409,0 Z M28.2368604,6.68571429 L25.8767904,11.5492453 L23.5767374,9.6068575 C23.2677468,11.4214637 23.64888,13.1151241 24.7201368,14.6878388 C26.3270222,17.0469109 30.2839303,16.8050582 31.7491252,14.6878388 C32.7259218,13.2763592 33.1085412,11.5826988 32.8969834,9.6068575 L30.4373982,11.5492453 L28.2368604,6.68571429 Z" id="Combined-Shape" fill="#D65B4A"></path>
                    <path d="M44.184147,11.7802542 L47.9735894,19.4177492 L50.9816717,16.9552143 C51.7466458,19.1476723 51.9378893,21.2239185 51.5554023,23.1839528 C50.9816717,26.1240042 49.1086922,29.4535216 44.184147,29.4535216 C39.2596018,29.4535216 37.10977,26.1585396 36.6738354,23.1839528 C36.3832124,21.2008949 36.7880194,19.1246487 37.8882564,16.9552143 L40.3435315,19.4177492 L44.184147,11.7802542 Z M43.898681,18.3446107 L41.5128234,23.1198598 L39.1876385,21.2127298 C38.8752717,22.9943976 39.2605694,24.657315 40.3435315,26.2014821 C41.9679747,28.5177327 45.9681185,28.2802701 47.4493232,26.2014821 C48.4367929,24.8156234 48.823593,23.152706 48.6097235,21.2127298 L46.1232634,23.1198598 L43.898681,18.3446107 Z" id="Combined-Shape-Copy" fill="#DA932C" transform="translate(44.164696, 20.616888) rotate(72.000000) translate(-44.164696, -20.616888) "></path>
                    <path d="M11.684147,11.7802542 L15.4735894,19.4177492 L18.4816717,16.9552143 C19.2466458,19.1476723 19.4378893,21.2239185 19.0554023,23.1839528 C18.4816717,26.1240042 16.6086922,29.4535216 11.684147,29.4535216 C6.75960183,29.4535216 4.60976999,26.1585396 4.17383542,23.1839528 C3.88321237,21.2008949 4.28801937,19.1246487 5.38825643,16.9552143 L7.84353148,19.4177492 L11.684147,11.7802542 Z M11.398681,18.3446107 L9.01282338,23.1198598 L6.68763849,21.2127298 C6.37527169,22.9943976 6.76056935,24.657315 7.84353148,26.2014821 C9.46797468,28.5177327 13.4681185,28.2802701 14.9493232,26.2014821 C15.9367929,24.8156234 16.323593,23.152706 16.1097235,21.2127298 L13.6232634,23.1198598 L11.398681,18.3446107 Z" id="Combined-Shape-Copy-4" fill="#567DC8" transform="translate(11.664696, 20.616888) scale(-1, 1) rotate(72.000000) translate(-11.664696, -20.616888) "></path>
                    <path d="M36.7964984,30.0803625 L40.5859408,37.7178575 L43.5940231,35.2553226 C44.3589971,37.4477806 44.5502406,39.5240268 44.1677536,41.4840611 C43.5940231,44.4241125 41.7210436,47.7536299 36.7964984,47.7536299 C31.8719532,47.7536299 29.7221214,44.458648 29.2861868,41.4840611 C28.9955637,39.5010032 29.4003708,37.424757 30.5006078,35.2553226 L32.9558829,37.7178575 L36.7964984,30.0803625 Z M36.5110324,36.644719 L34.1251748,41.4199681 L31.7999899,39.5128381 C31.4876231,41.2945059 31.8729207,42.9574234 32.9558829,44.5015904 C34.5803261,46.817841 38.5804699,46.5803784 40.0616745,44.5015904 C41.0491443,43.1157317 41.4359444,41.4528143 41.2220749,39.5128381 L38.7356148,41.4199681 L36.5110324,36.644719 Z" id="Combined-Shape-Copy-2" fill="#66B92E" transform="translate(36.777047, 38.916996) rotate(144.000000) translate(-36.777047, -38.916996) "></path>
                    <path d="M17.2964984,30.0803625 L21.0859408,37.7178575 L24.0940231,35.2553226 C24.8589971,37.4477806 25.0502406,39.5240268 24.6677536,41.4840611 C24.0940231,44.4241125 22.2210436,47.7536299 17.2964984,47.7536299 C12.3719532,47.7536299 10.2221214,44.458648 9.7861868,41.4840611 C9.49556375,39.5010032 9.90037075,37.424757 11.0006078,35.2553226 L13.4558829,37.7178575 L17.2964984,30.0803625 Z M17.0110324,36.644719 L14.6251748,41.4199681 L12.2999899,39.5128381 C11.9876231,41.2945059 12.3729207,42.9574234 13.4558829,44.5015904 C15.0803261,46.817841 19.0804699,46.5803784 20.5616745,44.5015904 C21.5491443,43.1157317 21.9359444,41.4528143 21.7220749,39.5128381 L19.2356148,41.4199681 L17.0110324,36.644719 Z" id="Combined-Shape-Copy-3" fill="#00BCD5" transform="translate(17.277047, 38.916996) scale(-1, 1) rotate(144.000000) translate(-17.277047, -38.916996) "></path>
                </g>
                <path d="M64.0786566,22 L64.0786566,12.1818275 L65.5600118,12.1818275 L65.5600118,16.4485138 L70.4547159,16.4485138 L70.4547159,12.1818275 L71.9408651,12.1818275 L71.9408651,22 L70.4547159,22 L70.4547159,17.7189316 L65.5600118,17.7189316 L65.5600118,22 L64.0786566,22 Z M75.0881879,22 L75.0881879,12.1818275 L81.2437218,12.1818275 L81.2437218,13.4570394 L76.569543,13.4570394 L76.569543,16.4485138 L80.9225218,16.4485138 L80.9225218,17.7189316 L76.569543,17.7189316 L76.569543,20.7247881 L81.3012501,20.7247881 L81.3012501,22 L75.0881879,22 Z M77.05374,11.3860186 L75.8839968,11.3860186 L75.8839968,11.3093142 L77.7392862,9.48758296 L78.5878294,9.48758296 L80.4479129,11.3093142 L80.4479129,11.3860186 L79.2733757,11.3860186 L78.1659548,10.312156 L77.05374,11.3860186 Z M78.0892504,24.5504237 C77.5906713,24.5504237 77.1831788,24.1573133 77.1831788,23.6779103 C77.1831788,23.1985074 77.5906713,22.810191 78.0892504,22.810191 C78.5830354,22.810191 78.9953219,23.1985074 78.9953219,23.6779103 C78.9953219,24.1573133 78.5830354,24.5504237 78.0892504,24.5504237 Z M88.3006102,13.4570394 L88.3006102,12.1818275 L95.899147,12.1818275 L95.899147,13.4570394 L92.8357622,13.4570394 L92.8357622,22 L91.3592011,22 L91.3592011,13.4570394 L88.3006102,13.4570394 Z M98.5622717,22 L98.5622717,12.1818275 L100.043627,12.1818275 L100.043627,16.4485138 L104.938331,16.4485138 L104.938331,12.1818275 L106.42448,12.1818275 L106.42448,22 L104.938331,22 L104.938331,17.7189316 L100.043627,17.7189316 L100.043627,22 L98.5622717,22 Z M118.100381,17.0909138 C118.100381,20.2310031 116.221122,22.1342328 113.680286,22.1342328 C111.129863,22.1342328 109.255397,20.2262091 109.255397,17.0909138 C109.255397,13.9508244 111.129863,12.0475947 113.680286,12.0475947 C116.221122,12.0475947 118.100381,13.9508244 118.100381,17.0909138 Z M116.633408,17.0909138 C116.633408,14.698693 115.367785,13.399511 113.680286,13.399511 C111.987994,13.399511 110.727164,14.698693 110.727164,17.0909138 C110.727164,19.4831345 111.987994,20.7823165 113.680286,20.7823165 C115.367785,20.7823165 116.633408,19.4831345 116.633408,17.0909138 Z M111.196979,11.2997261 L113.143355,9.63619787 L114.212424,9.63619787 L116.163594,11.2997261 L114.754149,11.2997261 L113.689874,10.3505083 L112.616012,11.2997261 L111.196979,11.2997261 Z M115.650632,10.2354516 L116.652585,8.48563079 L118.114764,8.48563079 L116.700525,10.2354516 L115.650632,10.2354516 Z M128.855829,12.1818275 L128.855829,22 L127.494325,22 L122.50374,14.7993677 L122.412654,14.7993677 L122.412654,22 L120.931299,22 L120.931299,12.1818275 L122.302391,12.1818275 L127.29777,19.3920479 L127.388856,19.3920479 L127.388856,12.1818275 L128.855829,12.1818275 Z M138.642883,15.2835646 C138.264155,14.1186155 137.386848,13.399511 136.082872,13.399511 C134.419343,13.399511 133.158513,14.7082811 133.158513,17.0861197 C133.158513,19.4735464 134.414549,20.7823165 136.145194,20.7823165 C137.660107,20.7823165 138.743558,19.8043345 138.78191,18.1983346 L136.375307,18.1983346 L136.375307,16.9758571 L140.234501,16.9758571 L140.234501,18.0928659 C140.234501,20.5713792 138.527827,22.1342328 136.1404,22.1342328 C133.484508,22.1342328 131.686746,20.2022389 131.686746,17.0957078 C131.686746,13.9604125 133.527654,12.0475947 136.073283,12.0475947 C138.192244,12.0475947 139.836597,13.3707469 140.167385,15.2835646 L138.642883,15.2835646 Z M156.198698,17.0909138 C156.198698,18.8982629 155.575474,20.2981195 154.55914,21.1562508 L155.882292,22.8821014 L154.367379,22.8821014 L153.528424,21.7938567 C153.001081,22.0191761 152.411415,22.1342328 151.778603,22.1342328 C149.228179,22.1342328 147.353714,20.2262091 147.353714,17.0909138 C147.353714,13.9508244 149.228179,12.0475947 151.778603,12.0475947 C154.319439,12.0475947 156.198698,13.9508244 156.198698,17.0909138 Z M151.280024,18.8167644 L152.737409,18.8167644 L153.681833,20.04883 C154.333821,19.4351942 154.731725,18.433242 154.731725,17.0909138 C154.731725,14.698693 153.466101,13.399511 151.778603,13.399511 C150.086311,13.399511 148.825481,14.698693 148.825481,17.0909138 C148.825481,19.4831345 150.086311,20.7823165 151.778603,20.7823165 C152.095009,20.7823165 152.397033,20.7391702 152.675087,20.6480837 L151.280024,18.8167644 Z M165.35294,12.1818275 L166.834296,12.1818275 L166.834296,18.6777375 C166.834296,20.8925792 165.103651,22.162997 162.931955,22.162997 C160.76026,22.162997 159.034409,20.8925792 159.034409,18.6777375 L159.034409,12.1818275 L160.515765,12.1818275 L160.515765,18.6537674 C160.515765,20.0296539 161.618391,20.8014926 162.931955,20.8014926 C164.255108,20.8014926 165.35294,20.0296539 165.35294,18.6537674 L165.35294,12.1818275 Z M170.810985,22 L169.238544,22 L172.771743,12.1818275 L174.483212,12.1818275 L178.016412,22 L176.44397,22 L175.547487,19.401636 L171.712263,19.401636 L170.810985,22 Z M172.143726,18.1551883 L175.116024,18.1551883 L173.668227,13.9652065 L173.591523,13.9652065 L172.143726,18.1551883 Z M174.214746,11.1654933 L173.083355,11.1654933 L173.045003,10.1875113 C173.720961,10.1539531 173.975045,10.0101322 173.970251,9.7224904 C173.975045,9.37732028 173.5292,9.24308745 172.963505,9.24308745 L173.006651,8.45207258 C174.454448,8.45207258 175.221493,8.94585762 175.216699,9.72728443 C175.221493,10.3553023 174.718119,10.628562 174.214746,10.7052665 L174.214746,11.1654933 Z M188.34519,12.1818275 L188.34519,22 L186.983686,22 L181.993101,14.7993677 L181.902015,14.7993677 L181.902015,22 L180.420659,22 L180.420659,12.1818275 L181.791752,12.1818275 L186.787131,19.3920479 L186.878217,19.3920479 L186.878217,12.1818275 L188.34519,12.1818275 Z M196.058863,22 L196.058863,12.1818275 L197.540218,12.1818275 L197.540218,20.7247881 L201.989077,20.7247881 L201.989077,22 L196.058863,22 Z M203.185227,12.1818275 L204.867931,12.1818275 L207.432737,16.645069 L207.538206,16.645069 L210.103012,12.1818275 L211.785716,12.1818275 L208.223752,18.1456003 L208.223752,22 L206.747191,22 L206.747191,18.1456003 L203.185227,12.1818275 Z M206.895806,11.1990515 L208.012815,8.98900389 L209.522934,8.98900389 L208.041579,11.1990515 L206.895806,11.1990515 Z" id="HỆTHỐNGQUẢNLÝ" fill="#505050" fill-rule="nonzero"></path>
                <path d="M73.9832982,33.9648514 L71.3391246,33.9648514 C71.1399061,32.606543 70.1075917,31.7794842 68.6768402,31.7794842 C66.7631347,31.7794842 65.507454,33.2464572 65.507454,35.8181877 C65.507454,38.4623613 66.7812454,39.8568912 68.6587294,39.8568912 C70.0532594,39.8568912 71.0916106,39.0962386 71.3391246,37.7741518 L73.9832982,37.7862256 C73.6995627,40.0621467 71.7858571,42.1690339 68.616471,42.1690339 C65.3082355,42.1690339 62.8572435,39.8508543 62.8572435,35.8181877 C62.8572435,31.7734473 65.350494,29.4673415 68.616471,29.4673415 C71.4779739,29.4673415 73.6391934,31.1093854 73.9832982,33.9648514 Z M75.8607944,42 L75.8607944,29.6363754 L78.4747834,29.6363754 L78.4747834,34.7375779 L83.7812414,34.7375779 L83.7812414,29.6363754 L86.3891935,29.6363754 L86.3891935,42 L83.7812414,42 L83.7812414,36.8927606 L78.4747834,36.8927606 L78.4747834,42 L75.8607944,42 Z M91.1583772,29.6363754 L91.1583772,42 L88.5443882,42 L88.5443882,29.6363754 L91.1583772,29.6363754 Z M88.9367884,28.4410641 L90.2226536,25.6942627 L92.5951656,25.6942627 L90.7539031,28.4410641 L88.9367884,28.4410641 Z M103.654819,29.6363754 L103.654819,42 L101.397008,42 L96.0181072,34.2184023 L95.9275533,34.2184023 L95.9275533,42 L93.3135643,42 L93.3135643,29.6363754 L95.6075962,29.6363754 L100.944239,37.4119362 L101.052904,37.4119362 L101.052904,29.6363754 L103.654819,29.6363754 Z M105.810013,42 L105.810013,29.6363754 L108.424002,29.6363754 L108.424002,34.7375779 L113.73046,34.7375779 L113.73046,29.6363754 L116.338412,29.6363754 L116.338412,42 L113.73046,42 L113.73046,36.8927606 L108.424002,36.8927606 L108.424002,42 L105.810013,42 Z M121.964843,31.791558 L121.964843,29.6363754 L132.118953,29.6363754 L132.118953,31.791558 L128.3338,31.791558 L128.3338,42 L125.749996,42 L125.749996,31.791558 L121.964843,31.791558 Z M133.797229,42 L133.797229,29.6363754 L138.675065,29.6363754 C141.482236,29.6363754 143.106169,31.2180501 143.106169,33.675079 C143.106169,35.3654183 142.327406,36.5909142 140.920802,37.1946069 L143.546865,42 L140.661214,42 L138.318887,37.6171917 L136.411218,37.6171917 L136.411218,42 L133.797229,42 Z M136.411218,35.5163414 L138.186074,35.5163414 C139.683232,35.5163414 140.4137,34.900575 140.4137,33.675079 C140.4137,32.443546 139.683232,31.7734473 138.174,31.7734473 L136.411218,31.7734473 L136.411218,35.5163414 Z M147.567468,29.6363754 L147.567468,42 L144.953479,42 L144.953479,29.6363754 L147.567468,29.6363754 Z M146.251418,45.591971 C145.490766,45.591971 144.862925,44.9882784 144.862925,44.2396996 C144.862925,43.4911207 145.490766,42.8813912 146.251418,42.8813912 C147.018108,42.8813912 147.645948,43.4911207 147.645948,44.2396996 C147.645948,44.9882784 147.018108,45.591971 146.251418,45.591971 Z M155.795807,42 L152.994673,42 L157.26278,29.6363754 L160.631384,29.6363754 L164.893454,42 L162.09232,42 L161.174708,39.1807555 L156.713419,39.1807555 L155.795807,42 Z M157.377481,37.1402745 L160.516683,37.1402745 L158.995377,32.4616568 L158.898787,32.4616568 L157.377481,37.1402745 Z M166.37855,42 L166.37855,29.6363754 L171.256386,29.6363754 C174.063557,29.6363754 175.68749,31.3689732 175.68749,33.8260021 C175.68749,36.2951049 174.033372,37.9914811 171.18998,37.9914811 L168.992539,37.9914811 L168.992539,42 L166.37855,42 Z M168.992539,35.8966678 L170.767395,35.8966678 C172.264553,35.8966678 172.995021,35.0514981 172.995021,33.8260021 C172.995021,32.5944692 172.264553,31.7734473 170.755322,31.7734473 L168.992539,31.7734473 L168.992539,35.8966678 Z M176.919034,31.791558 L176.919034,29.6363754 L187.073143,29.6363754 L187.073143,31.791558 L183.287991,31.791558 L183.287991,42 L180.704186,42 L180.704186,31.791558 L176.919034,31.791558 Z M188.751419,42 L188.751419,29.6363754 L197.082377,29.6363754 L197.082377,31.791558 L191.365408,31.791558 L191.365408,34.7375779 L196.653756,34.7375779 L196.653756,36.8927606 L191.365408,36.8927606 L191.365408,39.8448174 L197.106525,39.8448174 L197.106525,42 L188.751419,42 Z M210.073852,33.9648514 L207.429679,33.9648514 C207.23046,32.606543 206.198146,31.7794842 204.767394,31.7794842 C202.853689,31.7794842 201.598008,33.2464572 201.598008,35.8181877 C201.598008,38.4623613 202.871799,39.8568912 204.749283,39.8568912 C206.143813,39.8568912 207.182165,39.0962386 207.429679,37.7741518 L210.073852,37.7862256 C209.790117,40.0621467 207.876411,42.1690339 204.707025,42.1690339 C201.398789,42.1690339 198.947797,39.8508543 198.947797,35.8181877 C198.947797,31.7734473 201.441048,29.4673415 204.707025,29.4673415 C207.568528,29.4673415 209.729747,31.1093854 210.073852,33.9648514 Z" id="CHÍNHTRỊAPTEC" fill="#505050" fill-rule="nonzero"></path>
            </g>
        </g>
    </g>
</svg>