<?xml version="1.0" encoding="utf-8" ?>
<svg xmlns="http://www.w3.org/2000/svg" xmlns:xlink="http://www.w3.org/1999/xlink" width="15" height="18">
	<defs>
		<clipPath id="clip_0">
			<rect x="-30" y="-329" width="1580" height="936" clip-rule="evenodd"/>
		</clipPath>
	</defs>
	<g clip-path="url(#clip_0)">
		<path fill="rgb(183,192,205)" stroke="none" transform="translate(0.167603 0.831482)" d="M11.9134 9.70724L9.92572 9.70724L11.0577 5.09692C11.3612 3.86084 11.0848 2.5776 10.2994 1.57593C9.51392 0.574522 8.33355 0 7.05896 0C5.78611 0 4.60573 0.574522 3.82018 1.57593C3.03481 2.57763 2.75845 3.86084 3.06196 5.09692L4.19391 9.70724L2.20619 9.70724C0.989639 9.70724 0 10.6969 0 11.9134L0 15.0021L14.1196 15.0021L14.1196 11.9134C14.1196 10.6969 13.13 9.70724 11.9134 9.70724ZM1.47079 13.5313L12.6488 13.5313L12.6488 11.9134C12.6488 11.5078 12.3189 11.178 11.9134 11.178L8.05016 11.178L9.62938 4.74649C9.82444 3.95191 9.64677 3.12717 9.14205 2.4837C8.63733 1.83993 7.87866 1.47079 7.06067 1.47079C6.24096 1.47079 5.4823 1.83993 4.97755 2.48367C4.47283 3.12714 4.29516 3.95188 4.49022 4.74646L6.06947 11.178L2.20619 11.178C1.80072 11.178 1.47079 11.5078 1.47079 11.9134L1.47079 13.5313ZM1.47079 17.3554L12.6488 17.3554L12.6488 15.8846L1.47079 15.8846L1.47079 17.3554Z" fill-rule="evenodd"/>
	</g>

</svg>