<?xml version="1.0" encoding="UTF-8"?>
<svg width="192px" height="172px" viewBox="0 0 192 172" version="1.1" xmlns="http://www.w3.org/2000/svg" xmlns:xlink="http://www.w3.org/1999/xlink">
    <!-- Generator: Sketch 53.2 (72643) - https://sketchapp.com -->
    <title>overlay</title>
    <desc>Created with Sketch.</desc>
    <g id="Page-1" stroke="none" stroke-width="1" fill="none" fill-rule="evenodd">
        <g id="Dashboard-2" transform="translate(0.000000, -764.000000)" fill="#333D4D">
            <g id="overlay" transform="translate(-58.109375, 764.000000)">
                <path d="M128.212713,0.622297199 L147.108156,39.8333057 L162.107473,27.1906163 C165.921893,38.4467272 166.875498,49.1062047 164.968288,59.1690489 C162.107473,74.2633151 152.768163,91.3571047 128.212713,91.3571047 C103.657263,91.3571047 92.9374734,74.4406204 90.763756,59.1690489 C89.314611,48.9880012 91.3331159,38.3285236 96.8192704,27.1906163 L109.062103,39.8333057 L128.212713,0.622297199 Z M126.789283,34.3237971 L114.892589,58.8399945 L103.298429,49.048762 C101.740863,58.1958699 103.662087,66.7333118 109.062103,74.6610876 C117.162127,86.5527514 137.108199,85.3336151 144.493987,74.6610876 C149.417846,67.5460693 151.346562,59.0086274 150.280136,49.048762 L137.881804,58.8399945 L126.789283,34.3237971 Z M249.472745,90.8768001 L218.760589,120.940718 L235.251935,131.525897 C225.932656,138.608456 216.276809,142.759466 206.284395,143.978928 C191.295773,145.80812 172.41617,142.015244 164.745206,118.406446 C157.074243,94.7976486 169.521947,79.3585315 183.10338,72.6351008 C192.157669,68.1528137 202.741983,66.8593336 214.856324,68.7546603 L206.875249,84.3614024 L249.472745,90.8768001 Z M217.557846,99.7335427 L190.94834,95.7338903 L196.469385,81.6159686 C187.441305,82.8937523 180.069279,87.3312368 174.353306,94.9284222 C165.779347,106.3242 173.148792,125.131423 185.421997,128.994349 C193.604133,131.569633 202.178856,130.833668 211.146166,126.786455 L198.130021,117.836834 L217.557846,99.7335427 Z M0.857872743,90.8768001 L43.4553687,84.3614024 L35.474294,68.7546603 C47.5886343,66.8593336 58.1729489,68.1528137 67.2272376,72.6351008 C80.8086707,79.3585315 93.2563745,94.7976486 85.5854112,118.406446 C77.9144479,142.015244 59.0348448,145.80812 44.046223,143.978928 C34.0538085,142.759466 24.3979618,138.608456 15.0786829,131.525897 L31.5700285,120.940718 L0.857872743,90.8768001 Z M32.7727716,99.7335427 L52.2005963,117.836834 L39.1844521,126.786455 C48.1517614,130.833668 56.7264844,131.569633 64.908621,128.994349 C77.1818259,125.131423 84.5512705,106.3242 75.9773117,94.9284222 C70.2613391,87.3312368 62.8893128,82.8937523 53.8612327,81.6159686 L59.382278,95.7338903 L32.7727716,99.7335427 Z M195.941776,232.890379 L157.858712,212.971645 L152.887715,231.926847 C143.271986,225.252317 136.34032,217.351794 132.092717,208.225277 C125.721313,194.535502 123.494434,175.40787 143.577277,160.81683 C163.66012,146.225791 182.190145,153.293311 192.781401,164.132367 C199.842239,171.358405 204.343144,181.024979 206.284119,193.132089 L188.974937,190.364385 L195.941776,232.890379 Z M177.656267,205.274391 L173.237373,178.731286 L188.370411,179.619434 C184.365336,171.428077 177.866956,165.788121 168.875271,162.699568 C155.387743,158.066737 139.778294,170.887247 139.897062,183.753468 C139.976241,192.330949 143.325921,200.25857 149.946101,207.53633 L154.435486,192.391656 L177.656267,205.274391 Z M45.4398834,232.890379 L52.4067221,190.364385 L35.0975406,193.132089 C37.0385148,181.024979 41.5394206,171.358405 48.6002581,164.132367 C59.1915142,153.293311 77.7215392,146.225791 97.804382,160.81683 C117.887225,175.40787 115.660346,194.535502 109.288942,208.225277 C105.04134,217.351794 98.1096735,225.252317 88.4939439,231.926847 L83.5229468,212.971645 L45.4398834,232.890379 Z M63.7253923,205.274391 L86.9461734,192.391656 L91.4355586,207.53633 C98.0557386,200.25857 101.405418,192.330949 101.484597,183.753468 C101.603365,170.887247 85.9939163,158.066737 72.5063883,162.699568 C63.5147029,165.788121 57.0163229,171.428077 53.0112482,179.619434 L68.1442865,178.731286 L63.7253923,205.274391 Z" id="Combined-Shape"></path>
            </g>
        </g>
    </g>
</svg>