<?xml version="1.0" encoding="utf-8" ?>
<svg xmlns="http://www.w3.org/2000/svg" xmlns:xlink="http://www.w3.org/1999/xlink" width="17" height="18">
	<defs>
		<clipPath id="clip_0">
			<rect x="-29" y="-287" width="1580" height="936" clip-rule="evenodd"/>
		</clipPath>
	</defs>
	<g clip-path="url(#clip_0)">
		<path fill="rgb(183,192,205)" stroke="none" transform="translate(0.182129 0.30188)" d="M8.44875 9.70011C10.9462 9.70011 12.8296 7.43642 12.8296 4.43445C12.8296 2.03057 10.8234 0 8.44875 0C6.07401 0 4.06784 2.03057 4.06784 4.43445C4.06784 7.43645 5.95119 9.70011 8.44875 9.70011ZM8.44875 1.53185C9.9638 1.53185 11.2931 2.88613 11.2931 4.43019C11.2931 6.56127 10.0702 8.16832 8.44875 8.16832C6.82696 8.16832 5.60436 6.5613 5.60436 4.43019C5.60436 2.88613 6.9336 1.53185 8.44875 1.53185ZM14.732 11.9924C15.8205 12.2587 16.5255 13.0938 16.6639 14.2761C16.7259 14.8094 16.8249 16.2762 16.8976 17.523L15.3367 17.523C15.2655 16.2762 15.1723 14.9406 15.1161 14.4569C14.9994 13.4595 14.5887 13.5294 11.7467 12.9604L11.3113 12.8733L10.4969 10.5471C10.9891 10.3364 11.4426 10.0509 11.8516 9.70024L12.4884 11.5199C13.15 11.6539 14.3643 11.9017 14.732 11.9924ZM2.16753 11.9921C2.53392 11.9016 3.74805 11.6539 4.40932 11.5199L5.04647 9.70052C5.45501 10.0512 5.90882 10.337 6.40081 10.5476L5.5864 12.8744L5.15095 12.9626C4.41176 13.1105 2.91498 13.4171 2.53943 13.5102C1.6849 13.7187 1.76028 14.4059 1.56092 17.523L0 17.523C0.0727205 16.2762 0.171725 14.8094 0.233776 14.2767C0.372239 13.0938 1.0772 12.2587 2.16753 11.9921ZM9.86192 13.5426L8.43179 11.2826L7.0016 13.5426L7.79924 14.2807L6.96586 17.523L9.89768 17.523L9.06434 14.2807L9.86192 13.5426Z" fill-rule="evenodd"/>
	</g>

</svg>