<?xml version="1.0" encoding="utf-8" ?>
<svg xmlns="http://www.w3.org/2000/svg" xmlns:xlink="http://www.w3.org/1999/xlink" width="17" height="17">
	<defs>
		<clipPath id="clip_0">
			<rect x="-200.57117" y="-112.56979" width="1577.156" height="934.31519" clip-rule="evenodd"/>
		</clipPath>
	</defs>
	<g clip-path="url(#clip_0)">
		<path fill="rgb(127,143,164)" stroke="none" transform="matrix(0.9982 0 0 0.9982 0.0668945 0.553467)" d="M10.5355 3.4645C8.5825 1.5115 5.4175 1.5115 3.4645 3.4645C1.5115 5.4175 1.5115 8.5825 3.4645 10.5355C5.4175 12.4885 8.5825 12.4885 10.5355 10.5355C12.4885 8.5825 12.4885 5.4175 10.5355 3.4645M15.7355 15.7355C15.3445 16.1255 14.7115 16.1255 14.3205 15.7355L11.1715 12.5855C8.4295 14.6355 4.5415 14.4415 2.0505 11.9495C-0.6835 9.2165 -0.6835 4.7845 2.0505 2.0505C4.7835 -0.6835 9.2165 -0.6835 11.9495 2.0505C14.4415 4.5415 14.6355 8.4295 12.5855 11.1715L15.7355 14.3215C16.1255 14.7115 16.1255 15.3445 15.7355 15.7355"/>
	</g>

</svg>