<?xml version="1.0" encoding="utf-8" ?>
<svg xmlns="http://www.w3.org/2000/svg" xmlns:xlink="http://www.w3.org/1999/xlink" width="14" height="18">
	<defs>
		<clipPath id="clip_0">
			<rect x="-30" y="-410" width="1580" height="936" clip-rule="evenodd"/>
		</clipPath>
	</defs>
	<g clip-path="url(#clip_0)">
		<path fill="rgb(183,192,205)" stroke="none" transform="translate(0 0.321045)" d="M0.00147368 8.48253C0.0206316 11.8027 1.83032 14.8643 4.73568 16.4809L6.82095 17.6378C6.82537 17.64 6.83126 17.6393 6.83568 17.6415C6.88579 17.6665 6.94032 17.6842 7 17.6842C7.05968 17.6842 7.11421 17.6665 7.16358 17.6415C7.168 17.6393 7.17389 17.64 7.17832 17.6378L9.26432 16.4809C12.1697 14.8643 13.9786 11.8027 13.9978 8.48253C13.9978 8.47958 13.9993 8.47663 13.9993 8.47368C13.9993 8.47147 13.9978 8.46926 13.9978 8.46705C13.9978 8.45453 13.9993 8.442 13.9993 8.42947L13.9993 1.51789C13.9993 1.51642 13.9985 1.51568 13.9985 1.51421C13.9985 1.47958 13.9882 1.44789 13.9786 1.41547C13.9742 1.40147 13.9749 1.386 13.9691 1.37274C13.9624 1.35726 13.9499 1.34547 13.9411 1.33074C13.9256 1.30495 13.9116 1.27768 13.8902 1.25632C13.8821 1.24821 13.8703 1.24379 13.8615 1.23642C13.8335 1.21358 13.8047 1.19074 13.7708 1.17674C13.7701 1.176 13.7694 1.17526 13.7679 1.17453C11.8131 0.395684 9.41831 0.00589474 7.0221 0.00294737C7.01818 0.00333998 7.01446 0.00247743 7.01062 0.00158583C7.00725 0.000804083 7.00379 0 7 0C6.99189 0 6.98526 0.00368421 6.97789 0.00442105C4.58168 0.00663158 2.18695 0.396421 0.232105 1.176C0.230632 1.176 0.229895 1.17747 0.229158 1.17747C0.194526 1.19147 0.165053 1.21432 0.137053 1.23789C0.128211 1.24526 0.116421 1.24895 0.109053 1.25705C0.0869474 1.27916 0.0729474 1.30716 0.0567368 1.33368C0.0486316 1.34695 0.0361053 1.35874 0.0302105 1.37274C0.0243158 1.386 0.0250526 1.40221 0.0206316 1.41621C0.0110526 1.44863 0.00147368 1.48032 0.000736842 1.51421C0.000736842 1.51568 0 1.51642 0 1.51789L0 8.42947C0 8.442 0.00147368 8.45453 0.00147368 8.46705C0.00147368 8.46926 0 8.47147 0 8.47368C0 8.47663 0.00147368 8.47958 0.00147368 8.48253ZM0.736842 8.10526L6.63158 8.10526L6.63158 0.750105C4.53968 0.786947 2.47432 1.12958 0.736842 1.78316L0.736842 8.10526ZM13.2632 8.10526L7.36842 8.10526L7.36842 0.750105C9.46032 0.786211 11.5257 1.12884 13.2632 1.78316L13.2632 8.10526ZM0.764842 8.8421L6.63158 8.8421L6.63158 16.6902L5.09379 15.8369C2.52811 14.4089 0.907789 11.7541 0.764842 8.8421ZM7.36842 16.6902L8.90695 15.8369C11.4719 14.4089 13.0922 11.7541 13.2352 8.8421L7.36842 8.8421L7.36842 16.6902Z" fill-rule="evenodd"/>
	</g>
	<defs>
		<clipPath id="clip_1">
			<rect x="-30" y="-410" width="1580" height="936" clip-rule="evenodd"/>
		</clipPath>
	</defs>
	<g clip-path="url(#clip_1)">
		<path fill="none" stroke="rgb(183,192,205)" stroke-width="0.69999999" stroke-linecap="round" stroke-linejoin="round" transform="translate(0 0.321045)" d="M0.00147368 8.48253C0.0206316 11.8027 1.83032 14.8643 4.73568 16.4809L6.82095 17.6378C6.82537 17.64 6.83126 17.6393 6.83568 17.6415C6.88579 17.6665 6.94032 17.6842 7 17.6842C7.05968 17.6842 7.11421 17.6665 7.16358 17.6415C7.168 17.6393 7.17389 17.64 7.17832 17.6378L9.26432 16.4809C12.1697 14.8643 13.9786 11.8027 13.9978 8.48253C13.9978 8.47958 13.9993 8.47663 13.9993 8.47368C13.9993 8.47147 13.9978 8.46926 13.9978 8.46705C13.9978 8.45453 13.9993 8.442 13.9993 8.42947L13.9993 1.51789C13.9993 1.51642 13.9985 1.51568 13.9985 1.51421C13.9985 1.47958 13.9882 1.44789 13.9786 1.41547C13.9742 1.40147 13.9749 1.386 13.9691 1.37274C13.9624 1.35726 13.9499 1.34547 13.9411 1.33074C13.9256 1.30495 13.9116 1.27768 13.8902 1.25632C13.8821 1.24821 13.8703 1.24379 13.8615 1.23642C13.8335 1.21358 13.8047 1.19074 13.7708 1.17674C13.7701 1.176 13.7694 1.17526 13.7679 1.17453C11.8131 0.395684 9.41831 0.00589474 7.0221 0.00294737C7.01818 0.00333998 7.01446 0.00247743 7.01062 0.00158583C7.00725 0.000804083 7.00379 0 7 0C6.99189 0 6.98526 0.00368421 6.97789 0.00442105C4.58168 0.00663158 2.18695 0.396421 0.232105 1.176C0.230632 1.176 0.229895 1.17747 0.229158 1.17747C0.194526 1.19147 0.165053 1.21432 0.137053 1.23789C0.128211 1.24526 0.116421 1.24895 0.109053 1.25705C0.0869474 1.27916 0.0729474 1.30716 0.0567368 1.33368C0.0486316 1.34695 0.0361053 1.35874 0.0302105 1.37274C0.0243158 1.386 0.0250526 1.40221 0.0206316 1.41621C0.0110526 1.44863 0.00147368 1.48032 0.000736842 1.51421C0.000736842 1.51568 0 1.51642 0 1.51789L0 8.42947C0 8.442 0.00147368 8.45453 0.00147368 8.46705C0.00147368 8.46926 0 8.47147 0 8.47368C0 8.47663 0.00147368 8.47958 0.00147368 8.48253ZM0.736842 8.10526L6.63158 8.10526L6.63158 0.750105C4.53968 0.786947 2.47432 1.12958 0.736842 1.78316L0.736842 8.10526ZM13.2632 8.10526L7.36842 8.10526L7.36842 0.750105C9.46032 0.786211 11.5257 1.12884 13.2632 1.78316L13.2632 8.10526ZM0.764842 8.8421L6.63158 8.8421L6.63158 16.6902L5.09379 15.8369C2.52811 14.4089 0.907789 11.7541 0.764842 8.8421ZM7.36842 16.6902L8.90695 15.8369C11.4719 14.4089 13.0922 11.7541 13.2352 8.8421L7.36842 8.8421L7.36842 16.6902Z" fill-rule="evenodd"/>
	</g>

</svg>