<?xml version="1.0" encoding="utf-8" ?>
<svg xmlns="http://www.w3.org/2000/svg" xmlns:xlink="http://www.w3.org/1999/xlink" width="17" height="11">
	<defs>
		<clipPath id="clip_0">
			<rect x="-364.67993" y="-579.31995" width="1548.4" height="1105.4401" clip-rule="evenodd"/>
		</clipPath>
	</defs>
	<g clip-path="url(#clip_0)">
		<path fill="rgb(197,208,222)" stroke="none" transform="matrix(0.98 0 0 0.98 0.509521 0.100098)" d="M5.1412 4.38716Q4.25006 4.38716 3.59884 3.73594Q2.94762 3.08472 2.94762 2.19358Q2.94762 1.30244 3.59884 0.651219Q4.25006 0 5.1412 0Q6.03234 0 6.66642 0.651219Q7.30051 1.30244 7.30051 2.19358Q7.30051 3.08472 6.66642 3.73594Q6.03234 4.38716 5.1412 4.38716ZM9.42554 3.73594Q10.0768 4.38716 10.9679 4.38716Q11.859 4.38716 12.5103 3.73594Q13.1615 3.08472 13.1615 2.19358Q13.1615 1.30244 12.5103 0.651219Q11.859 0 10.9679 0Q10.0768 2.90573e-07 9.42554 0.651219Q8.77432 1.30244 8.77432 2.19358Q8.77432 3.08472 9.42554 3.73594ZM7.23196 6.10089Q6.10089 5.82669 5.1412 5.82669Q4.18151 5.82669 3.05045 6.10089Q1.91938 6.37509 0.959691 6.99203Q0 7.60898 0 8.3973L0 10.2139L10.2481 10.2139L10.2481 8.3973Q10.2481 7.60898 9.30557 6.99203Q8.36302 6.37509 7.23196 6.10089ZM13.0587 6.10089Q11.9276 5.82669 10.9679 5.82669C10.6708 5.82669 10.4424 5.83812 10.2824 5.86097Q11.7219 6.88921 11.7219 8.3973L11.7219 10.2139L16.1091 10.2139L16.1091 8.3973Q16.1091 7.60898 15.1494 6.99203Q14.1897 6.37509 13.0587 6.10089Z" fill-rule="evenodd"/>
	</g>

</svg>