<?xml version="1.0" encoding="utf-8" ?>
<svg xmlns="http://www.w3.org/2000/svg" xmlns:xlink="http://www.w3.org/1999/xlink" width="16" height="16">
	<defs>
		<clipPath id="clip_0">
			<rect x="-1439" y="-487" width="1580" height="936" clip-rule="evenodd"/>
		</clipPath>
	</defs>
	<g clip-path="url(#clip_0)">
		<path fill="rgb(197,208,222)" stroke="none" transform="translate(0.78125 0.259613)" d="M13.909 9L16 9L16 7L13.909 7C13.76 6.114 13.408 5.301 12.915 4.593L15.012 2.77L13.568 0.987L11.257 2.997C10.583 2.56 9.825 2.24 9 2.101L9 0L7 0L7 2.101C6.175 2.24 5.417 2.56 4.744 2.997L2.432 0.987L0.988 2.77L3.085 4.593C2.592 5.301 2.24 6.114 2.091 7L0 7L0 9L2.101 9C2.25 9.884 2.6 10.697 3.089 11.404L0.988 13.231L2.432 15.013L4.74 13.006C5.413 13.448 6.173 13.77 7 13.909L7 16L9 16L9 13.899C9.825 13.76 10.583 13.44 11.257 13.003L13.568 15.013L15.012 13.231L12.915 11.407C13.408 10.699 13.76 9.886 13.909 9ZM5 8C5 6.343 6.343 5 8 5C9.657 5 11 6.343 11 8C11 9.657 9.657 11 8 11C6.343 11 5 9.657 5 8Z" fill-rule="evenodd"/>
	</g>

</svg>