<?xml version="1.0" encoding="utf-8" ?>
<svg xmlns="http://www.w3.org/2000/svg" xmlns:xlink="http://www.w3.org/1999/xlink" width="17" height="16">
	<defs>
		<clipPath id="clip_0">
			<rect x="-1439" y="-581" width="1580" height="936" clip-rule="evenodd"/>
		</clipPath>
	</defs>
	<g clip-path="url(#clip_0)">
		<path fill="rgb(187,197,213)" stroke="none" transform="translate(0.28125 0.188843)" d="M2 3.01925L2 12.0192C2 12.5712 2.448 13.0192 3 13.0192L13 13.0192C13.552 13.0192 14 12.5712 14 12.0192L14 9.01925L16 9.01925L16 13.0192C16 14.1242 15.105 15.0192 14 15.0192L2 15.0192C0.895 15.0192 0 14.1242 0 13.0192L0 2.01925C0 0.91525 0.895 0.01925 2 0.01925L7 0.01925L7 2.01925L3 2.01925C2.448 2.01925 2 2.46725 2 3.01925M15.713 4.67725L12.705 7.71425C12.317 8.10525 11.689 8.10525 11.302 7.71425C10.914 7.32225 10.914 6.68825 11.302 6.29725L12.548 5.03925C11.525 4.99325 7.456 5.11925 5.944 9.37825C5.798 9.78725 5.413 10.0433 5.001 10.0433C4.89 10.0433 4.777 10.0243 4.667 9.98525C4.146 9.80125 3.874 9.22825 4.059 8.70825C5.762 3.91625 10.192 2.83625 12.654 3.03025L11.31 1.71025C10.922 1.31925 10.922 0.68525 11.31 0.29325C11.698 -0.09775 12.326 -0.09775 12.713 0.29325L15.713 3.26025C15.899 3.44825 16.004 3.70225 16.004 3.96825C16.004 4.23425 15.899 4.48925 15.713 4.67725"/>
	</g>

</svg>